<svg xmlns="http://www.w3.org/2000/svg" xmlns:xlink="http://www.w3.org/1999/xlink" width="375" zoomAndPan="magnify" viewBox="0 0 375 74.999997" height="74.999997" preserveAspectRatio="xMidYMid meet" version="1.0"><defs><clipPath id="id1"><path d="M 2.277344 5.1875 L 59 5.1875 L 59 70.4375 L 2.277344 70.4375 Z M 2.277344 5.1875 " clip-rule="nonzero"/></clipPath></defs><g clip-path="url(#id1)"><path fill="rgb(94.119263%, 72.549438%, 4.309082%)" d="M 13.152344 15.183594 L 30.445312 5.1875 L 47.738281 15.183594 L 41.382812 18.875 L 30.445312 12.574219 L 19.511719 18.875 Z M 47.738281 27.789062 L 41.382812 24.09375 L 30.445312 30.398438 L 19.511719 24.09375 L 13.152344 27.789062 L 13.152344 35.171875 L 24.089844 41.472656 L 24.089844 54.078125 L 30.445312 57.769531 L 36.804688 54.078125 L 36.804688 41.472656 L 47.738281 35.171875 Z M 47.738281 47.777344 L 47.738281 40.390625 L 41.382812 44.082031 L 41.382812 51.46875 Z M 52.253906 50.386719 L 41.316406 56.6875 L 41.316406 64.074219 L 58.609375 54.078125 L 58.609375 34.089844 L 52.253906 37.78125 Z M 45.894531 21.484375 L 52.253906 25.175781 L 52.253906 32.5625 L 58.609375 28.871094 L 58.609375 21.484375 L 52.253906 17.792969 Z M 24.089844 59.363281 L 24.089844 66.746094 L 30.445312 70.4375 L 36.804688 66.746094 L 36.804688 59.363281 L 30.445312 63.054688 Z M 13.152344 47.777344 L 19.511719 51.46875 L 19.511719 44.082031 L 13.152344 40.390625 Z M 24.089844 21.484375 L 30.445312 25.175781 L 36.804688 21.484375 L 30.445312 17.792969 Z M 8.640625 25.175781 L 14.996094 21.484375 L 8.640625 17.792969 L 2.28125 21.484375 L 2.28125 28.871094 L 8.640625 32.5625 Z M 8.640625 37.78125 L 2.28125 34.089844 L 2.28125 54.078125 L 19.574219 64.074219 L 19.574219 56.6875 L 8.640625 50.386719 Z M 8.640625 37.78125 " fill-opacity="1" fill-rule="nonzero"/></g><path fill="rgb(94.119263%, 72.549438%, 4.309082%)" d="M 108.734375 46.136719 L 108.734375 46.035156 C 108.734375 41.15625 106.144531 38.71875 101.945312 37.109375 C 104.539062 35.65625 106.714844 33.375 106.714844 29.277344 L 106.714844 29.171875 C 106.714844 23.46875 102.152344 19.785156 94.746094 19.785156 L 77.90625 19.785156 L 77.90625 56.097656 L 95.160156 56.097656 C 103.34375 56.097656 108.734375 52.777344 108.734375 46.136719 Z M 98.785156 30.625 C 98.785156 33.324219 96.558594 34.464844 93.035156 34.464844 L 85.679688 34.464844 L 85.679688 26.789062 L 93.554688 26.789062 C 96.921875 26.789062 98.785156 28.136719 98.785156 30.523438 Z M 100.808594 45.152344 C 100.808594 47.847656 98.683594 49.09375 95.160156 49.09375 L 85.679688 49.09375 L 85.679688 41.105469 L 94.902344 41.105469 C 98.992188 41.105469 100.808594 42.609375 100.808594 45.046875 Z M 100.808594 45.152344 " fill-opacity="1" fill-rule="nonzero"/><path fill="rgb(94.119263%, 72.549438%, 4.309082%)" d="M 148.042969 56.097656 L 148.042969 19.785156 L 140.167969 19.785156 L 140.167969 42.144531 L 123.171875 19.785156 L 115.816406 19.785156 L 115.816406 56.097656 L 123.691406 56.097656 L 123.691406 33.011719 L 141.253906 56.097656 Z M 148.042969 56.097656 " fill-opacity="1" fill-rule="nonzero"/><path fill="rgb(94.119263%, 72.549438%, 4.309082%)" d="M 188.09375 46.136719 L 188.09375 46.035156 C 188.09375 41.15625 185.5 38.71875 181.304688 37.109375 C 183.894531 35.65625 186.070312 33.375 186.070312 29.277344 L 186.070312 29.171875 C 186.070312 23.46875 181.511719 19.785156 174.105469 19.785156 L 157.265625 19.785156 L 157.265625 56.097656 L 174.519531 56.097656 C 182.703125 56.097656 188.09375 52.777344 188.09375 46.136719 Z M 178.144531 30.625 C 178.144531 33.324219 175.917969 34.464844 172.394531 34.464844 L 165.035156 34.464844 L 165.035156 26.789062 L 172.910156 26.789062 C 176.28125 26.789062 178.144531 28.136719 178.144531 30.523438 Z M 180.164062 45.152344 C 180.164062 47.847656 178.042969 49.09375 174.519531 49.09375 L 165.035156 49.09375 L 165.035156 41.105469 L 174.257812 41.105469 C 178.351562 41.105469 180.164062 42.609375 180.164062 45.046875 Z M 180.164062 45.152344 " fill-opacity="1" fill-rule="nonzero"/><path fill="rgb(94.119263%, 72.549438%, 4.309082%)" d="M 236.179688 49.683594 L 232.085938 45.53125 C 228.976562 48.4375 226.128906 50.253906 221.671875 50.253906 C 214.730469 50.253906 209.703125 44.441406 209.703125 37.285156 C 209.703125 30.125 214.730469 24.417969 221.671875 24.417969 C 225.816406 24.417969 228.925781 26.234375 231.828125 28.933594 L 235.921875 24.210938 C 232.449219 20.890625 228.40625 18.558594 221.722656 18.558594 C 210.742188 18.558594 203.019531 27.011719 203.019531 37.386719 C 203.019531 47.867188 210.894531 56.113281 221.464844 56.113281 C 228.253906 56.113281 232.398438 53.625 236.179688 49.683594 Z M 236.179688 49.683594 " fill-opacity="1" fill-rule="nonzero"/><path fill="rgb(94.119263%, 72.549438%, 4.309082%)" d="M 267.074219 40.1875 L 267.074219 55.492188 L 273.445312 55.492188 L 273.445312 19.179688 L 267.074219 19.179688 L 267.074219 34.273438 L 249.769531 34.273438 L 249.769531 19.179688 L 243.394531 19.179688 L 243.394531 55.492188 L 249.769531 55.492188 L 249.769531 40.1875 Z M 267.074219 40.1875 " fill-opacity="1" fill-rule="nonzero"/><path fill="rgb(94.119263%, 72.549438%, 4.309082%)" d="M 302.03125 18.917969 L 296.125 18.917969 L 280.167969 55.492188 L 286.695312 55.492188 L 290.425781 46.726562 L 307.574219 46.726562 L 311.253906 55.492188 L 317.988281 55.492188 Z M 305.242188 41.070312 L 292.757812 41.070312 L 298.972656 26.546875 Z M 305.242188 41.070312 " fill-opacity="1" fill-rule="nonzero"/><path fill="rgb(94.119263%, 72.549438%, 4.309082%)" d="M 325.089844 19.179688 L 325.089844 55.492188 L 331.460938 55.492188 L 331.460938 19.179688 Z M 325.089844 19.179688 " fill-opacity="1" fill-rule="nonzero"/><path fill="rgb(94.119263%, 72.549438%, 4.309082%)" d="M 367.023438 44.289062 L 347.59375 19.179688 L 341.6875 19.179688 L 341.6875 55.492188 L 347.957031 55.492188 L 347.957031 29.660156 L 367.957031 55.492188 L 373.292969 55.492188 L 373.292969 19.179688 L 367.023438 19.179688 Z M 367.023438 44.289062 " fill-opacity="1" fill-rule="nonzero"/></svg>