<svg xmlns="http://www.w3.org/2000/svg" xmlns:xlink="http://www.w3.org/1999/xlink" width="375" zoomAndPan="magnify" viewBox="0 0 375 74.999997" height="74.999997" preserveAspectRatio="xMidYMid meet" version="1.0"><path fill="rgb(9.01947%, 9.408569%, 10.5896%)" d="M 57.875 42.625 C 56.78125 43.292969 55.503906 43.414062 54.527344 42.867188 C 53.3125 42.136719 52.582031 40.492188 52.582031 38.242188 L 52.582031 31.367188 C 52.582031 28.082031 51.304688 25.707031 49.113281 25.097656 C 45.402344 24.003906 42.601562 28.566406 41.566406 30.269531 L 34.996094 40.796875 L 34.996094 27.835938 C 34.933594 24.855469 33.960938 23.089844 32.136719 22.542969 C 30.917969 22.175781 29.09375 22.359375 27.328125 25.039062 L 12.664062 48.527344 C 10.714844 44.8125 9.683594 40.675781 9.683594 36.476562 C 9.683594 22.300781 21.0625 10.796875 34.996094 10.796875 C 48.929688 10.796875 60.308594 22.300781 60.308594 36.476562 C 60.308594 36.476562 60.308594 36.539062 60.308594 36.539062 C 60.308594 36.539062 60.308594 36.597656 60.308594 36.597656 C 60.433594 39.335938 59.578125 41.527344 57.875 42.625 Z M 65.910156 36.476562 L 65.910156 36.355469 C 65.847656 19.136719 51.972656 5.078125 34.996094 5.078125 C 17.957031 5.078125 4.082031 19.136719 4.082031 36.476562 C 4.082031 53.757812 17.957031 67.878906 34.996094 67.878906 C 42.84375 67.878906 50.269531 64.894531 55.988281 59.480469 C 57.144531 58.382812 57.207031 56.621094 56.109375 55.464844 C 55.078125 54.308594 53.3125 54.246094 52.15625 55.28125 C 52.15625 55.28125 52.15625 55.28125 52.09375 55.339844 C 47.46875 59.722656 41.261719 62.21875 34.875 62.21875 C 27.390625 62.21875 20.695312 58.933594 16.070312 53.699219 L 29.277344 32.523438 L 29.277344 42.320312 C 29.277344 47.003906 31.101562 48.527344 32.621094 48.953125 C 34.144531 49.378906 36.457031 49.074219 38.953125 45.117188 L 46.191406 33.375 C 46.4375 33.007812 46.617188 32.644531 46.863281 32.402344 L 46.863281 38.363281 C 46.863281 42.746094 48.625 46.273438 51.667969 47.980469 C 54.40625 49.5625 57.875 49.378906 60.734375 47.613281 C 64.265625 45.300781 66.152344 41.285156 65.910156 36.476562 Z M 108.992188 25.769531 C 109.722656 26.195312 110.390625 27.226562 110.390625 28.140625 C 110.390625 29.601562 109.171875 30.820312 107.773438 30.820312 C 107.410156 30.820312 107.105469 30.695312 106.800781 30.636719 C 105.15625 29.417969 103.089844 28.628906 100.898438 28.628906 C 95.726562 28.628906 92.195312 32.828125 92.195312 38.058594 C 92.195312 43.292969 95.785156 47.429688 100.898438 47.429688 C 103.453125 47.429688 105.765625 46.394531 107.46875 44.753906 C 107.894531 44.449219 108.441406 44.265625 108.992188 44.265625 C 110.390625 44.265625 111.484375 45.363281 111.484375 46.761719 C 111.484375 47.675781 110.9375 48.464844 110.269531 48.890625 C 107.773438 51.019531 104.425781 52.421875 100.957031 52.421875 C 93.046875 52.421875 86.597656 45.910156 86.597656 37.878906 C 86.597656 29.84375 93.046875 23.332031 100.957031 23.332031 C 103.878906 23.273438 106.679688 24.1875 108.992188 25.769531 Z M 123.472656 31.851562 C 128.890625 31.851562 133.390625 36.417969 133.390625 42.074219 C 133.390625 47.675781 128.828125 52.480469 123.472656 52.480469 C 117.8125 52.480469 113.128906 47.734375 113.128906 42.074219 C 113.128906 36.417969 117.8125 31.851562 123.472656 31.851562 Z M 123.414062 47.429688 C 125.785156 47.429688 127.792969 45.179688 127.792969 42.136719 C 127.792969 39.09375 125.785156 37.148438 123.414062 37.148438 C 120.855469 37.148438 118.726562 39.035156 118.726562 42.136719 C 118.726562 45.117188 120.855469 47.429688 123.414062 47.429688 Z M 136.800781 49.316406 L 136.800781 34.957031 C 136.800781 33.375 138.015625 32.097656 139.597656 32.097656 C 141.121094 32.097656 142.398438 33.375 142.398438 34.957031 L 142.398438 49.316406 C 142.398438 50.898438 141.121094 52.175781 139.597656 52.175781 C 138.078125 52.175781 136.800781 50.839844 136.800781 49.316406 Z M 136.375 26.679688 C 136.375 24.792969 137.835938 23.332031 139.597656 23.332031 C 141.425781 23.332031 142.886719 24.855469 142.886719 26.679688 C 142.886719 28.507812 141.425781 29.964844 139.597656 29.964844 C 137.773438 29.90625 136.375 28.445312 136.375 26.679688 Z M 153.109375 41.527344 L 153.109375 49.316406 C 153.109375 50.898438 151.832031 52.175781 150.308594 52.175781 C 148.789062 52.175781 147.507812 50.898438 147.507812 49.316406 L 147.507812 34.285156 C 147.507812 33.070312 148.484375 32.097656 149.699219 32.097656 C 150.917969 32.097656 151.832031 33.132812 151.832031 34.285156 C 154.082031 32.15625 156.089844 31.851562 157.976562 31.851562 C 163.574219 31.851562 166.070312 36.050781 166.070312 40.859375 L 166.070312 49.316406 C 166.070312 50.898438 164.792969 52.175781 163.269531 52.175781 C 161.75 52.175781 160.472656 50.898438 160.472656 49.316406 L 160.472656 41.527344 C 160.472656 39.09375 160.167969 37.023438 156.636719 37.023438 C 154.140625 37.023438 153.109375 39.09375 153.109375 41.527344 Z M 184.203125 44.511719 C 183.535156 44.511719 183.109375 44.207031 182.742188 43.78125 L 176.230469 36.722656 L 176.230469 49.316406 C 176.230469 50.898438 174.953125 52.175781 173.433594 52.175781 C 171.910156 52.175781 170.632812 50.898438 170.632812 49.316406 L 170.632812 24.367188 C 170.816406 23.941406 171.242188 23.636719 171.667969 23.636719 C 172.15625 23.636719 172.582031 24.0625 172.882812 24.367188 L 183.289062 36.050781 C 183.59375 36.417969 183.960938 36.597656 184.203125 36.597656 C 184.386719 36.597656 184.8125 36.417969 185.117188 36.050781 L 195.519531 24.367188 C 195.824219 24.0625 196.191406 23.636719 196.738281 23.636719 C 197.226562 23.636719 197.652344 23.941406 197.773438 24.367188 L 197.773438 49.316406 C 197.773438 50.898438 196.554688 52.175781 194.972656 52.175781 C 193.453125 52.175781 192.175781 50.898438 192.175781 49.316406 L 192.175781 36.722656 L 185.664062 43.78125 C 185.175781 44.207031 184.75 44.511719 184.203125 44.511719 Z M 211.097656 47.429688 C 213.59375 47.429688 215.722656 45.179688 215.722656 42.136719 C 215.722656 39.09375 213.535156 37.085938 211.097656 37.085938 C 208.664062 37.085938 206.65625 39.15625 206.65625 42.136719 C 206.65625 45.058594 208.605469 47.429688 211.097656 47.429688 Z M 217.0625 49.988281 L 216.941406 49.316406 C 215.84375 51.445312 212.378906 52.421875 210.1875 52.421875 C 204.953125 52.421875 201.058594 47.675781 201.058594 42.015625 C 201.058594 36.417969 205.015625 31.792969 210.492188 31.792969 C 211.402344 31.792969 214.566406 32.035156 217 34.894531 L 217.125 34.226562 C 217.125 33.007812 218.035156 32.035156 219.253906 32.035156 C 220.46875 32.035156 221.445312 33.070312 221.445312 34.226562 L 221.445312 49.925781 C 221.445312 51.144531 220.46875 52.117188 219.253906 52.117188 C 217.976562 52.175781 217.0625 51.144531 217.0625 49.988281 Z M 236.839844 37.023438 L 236.230469 37.023438 C 232.703125 37.207031 232.03125 39.214844 232.03125 41.527344 L 232.03125 49.316406 C 232.03125 50.898438 230.753906 52.175781 229.234375 52.175781 C 227.710938 52.175781 226.433594 50.898438 226.433594 49.316406 L 226.433594 34.285156 C 226.433594 33.070312 227.40625 32.097656 228.625 32.097656 C 229.839844 32.097656 230.753906 33.132812 230.753906 34.285156 C 232.824219 32.339844 234.527344 31.914062 236.230469 31.851562 L 236.777344 31.851562 C 238.117188 31.851562 239.335938 33.007812 239.335938 34.46875 C 239.394531 35.808594 238.179688 37.023438 236.839844 37.023438 Z M 258.441406 47.980469 C 258.683594 48.40625 258.867188 48.832031 258.867188 49.316406 C 258.867188 50.777344 257.527344 52.117188 256.070312 52.117188 C 255.09375 52.117188 254.242188 51.386719 253.574219 50.535156 L 247.125 43.050781 L 247.125 49.257812 C 247.125 50.839844 245.84375 52.117188 244.324219 52.117188 C 242.804688 52.117188 241.523438 50.839844 241.523438 49.257812 L 241.523438 26.4375 C 241.523438 24.855469 242.742188 23.578125 244.324219 23.578125 C 245.90625 23.578125 247.125 24.855469 247.125 26.4375 L 247.125 40.675781 L 253.574219 33.558594 C 254.242188 32.828125 255.035156 32.035156 256.007812 32.035156 C 257.40625 32.035156 258.683594 33.3125 258.683594 34.773438 C 258.683594 35.199219 258.5625 35.6875 258.320312 36.050781 L 253.207031 41.648438 Z M 269.394531 37.085938 C 267.875 37.085938 265.378906 37.878906 265.378906 40.25 L 273.472656 40.25 C 273.410156 37.878906 270.855469 37.085938 269.394531 37.085938 Z M 276.695312 43.839844 L 265.378906 43.839844 C 265.378906 47.1875 268.605469 47.734375 270.003906 47.734375 C 271.039062 47.734375 272.5 47.550781 273.65625 47.003906 C 274.019531 46.761719 274.566406 46.578125 275.113281 46.578125 C 276.332031 46.578125 277.367188 47.613281 277.367188 48.890625 C 277.367188 49.742188 276.820312 50.472656 276.148438 50.898438 C 274.445312 52.175781 272.195312 52.480469 270.0625 52.480469 C 264.40625 52.480469 259.71875 49.4375 259.71875 42.320312 C 259.71875 36.722656 262.578125 31.851562 269.273438 31.851562 C 274.6875 31.851562 278.765625 35.382812 278.886719 41.648438 C 278.886719 42.804688 277.914062 43.839844 276.695312 43.839844 Z M 292.273438 52.421875 L 290.753906 52.421875 C 286.492188 52.421875 284 50.535156 284 43.902344 L 284 37.027344 L 282.539062 37.027344 C 281.199219 37.027344 280.042969 35.808594 280.042969 34.46875 C 280.042969 33.007812 281.261719 31.851562 282.539062 31.851562 L 284 31.851562 L 284 26.558594 C 284 24.976562 285.214844 23.699219 286.796875 23.699219 C 288.320312 23.699219 289.597656 24.976562 289.597656 26.558594 L 289.597656 31.851562 L 291.910156 31.851562 C 293.25 31.851562 294.40625 33.007812 294.40625 34.46875 C 294.40625 35.808594 293.1875 37.027344 291.910156 37.027344 L 289.597656 37.027344 L 289.597656 42.804688 C 289.597656 46.640625 289.78125 47.429688 291.484375 47.429688 L 292.273438 47.429688 C 293.613281 47.429688 294.769531 48.527344 294.769531 49.925781 C 294.769531 51.265625 293.613281 52.421875 292.273438 52.421875 Z M 319.355469 25.769531 C 320.082031 26.195312 320.753906 27.226562 320.753906 28.140625 C 320.753906 29.601562 319.535156 30.820312 318.136719 30.820312 C 317.773438 30.820312 317.46875 30.695312 317.164062 30.636719 C 315.519531 29.417969 313.449219 28.628906 311.261719 28.628906 C 306.089844 28.628906 302.558594 32.828125 302.558594 38.058594 C 302.558594 43.292969 306.148438 47.429688 311.261719 47.429688 C 313.816406 47.429688 316.128906 46.394531 317.832031 44.753906 C 318.257812 44.449219 318.804688 44.265625 319.355469 44.265625 C 320.753906 44.265625 321.847656 45.363281 321.847656 46.761719 C 321.847656 47.675781 321.300781 48.464844 320.632812 48.890625 C 318.136719 51.019531 314.789062 52.421875 311.320312 52.421875 C 303.410156 52.421875 296.960938 45.910156 296.960938 37.878906 C 296.960938 29.84375 303.410156 23.332031 311.320312 23.332031 C 314.242188 23.273438 317.101562 24.1875 319.355469 25.769531 Z M 333.53125 47.429688 C 336.027344 47.429688 338.15625 45.179688 338.15625 42.136719 C 338.15625 39.09375 335.964844 37.085938 333.53125 37.085938 C 331.035156 37.085938 329.089844 39.15625 329.089844 42.136719 C 329.089844 45.058594 331.097656 47.429688 333.53125 47.429688 Z M 339.496094 49.988281 L 339.375 49.316406 C 338.277344 51.445312 334.808594 52.421875 332.621094 52.421875 C 327.386719 52.421875 323.492188 47.675781 323.492188 42.015625 C 323.492188 36.417969 327.445312 31.792969 332.921875 31.792969 C 333.835938 31.792969 337 32.035156 339.433594 34.894531 L 339.554688 34.226562 C 339.554688 33.007812 340.46875 32.035156 341.6875 32.035156 C 342.902344 32.035156 343.875 33.070312 343.875 34.226562 L 343.875 49.925781 C 343.875 51.144531 342.902344 52.117188 341.6875 52.117188 C 340.40625 52.175781 339.496094 51.144531 339.496094 49.988281 Z M 359.148438 47.429688 C 361.644531 47.429688 363.59375 45.058594 363.59375 42.136719 C 363.59375 39.09375 361.585938 37.085938 359.148438 37.085938 C 356.65625 37.085938 354.527344 39.09375 354.527344 42.136719 C 354.527344 45.179688 356.65625 47.429688 359.148438 47.429688 Z M 354.527344 50.777344 L 354.527344 57.898438 C 354.527344 59.480469 353.246094 60.757812 351.726562 60.757812 C 350.207031 60.757812 348.925781 59.480469 348.925781 57.898438 L 348.925781 34.285156 C 348.925781 33.070312 349.902344 32.097656 351.117188 32.097656 C 352.335938 32.097656 353.246094 33.132812 353.246094 34.53125 C 355.316406 32.402344 357.871094 31.851562 359.820312 31.851562 C 365.234375 31.851562 369.25 36.417969 369.25 42.074219 C 369.25 47.675781 365.417969 52.480469 360.125 52.480469 C 358.480469 52.421875 356.046875 51.933594 354.527344 50.777344 Z M 354.527344 50.777344 " fill-opacity="1" fill-rule="nonzero"/></svg>