<svg xmlns="http://www.w3.org/2000/svg" width="270" viewBox="0 0 270 120" height="120" version="1.0"><defs><clipPath id="a"><path d="M 10.453125 11.691406 L 106.800781 11.691406 L 106.800781 108.039062 L 10.453125 108.039062 Z M 10.453125 11.691406"/></clipPath></defs><path fill="#FFF8DC" d="M 58.65625 3.339844 C 27.421875 3.339844 2.101562 28.660156 2.101562 59.894531 C 2.101562 91.128906 27.421875 116.445312 58.65625 116.445312 C 89.890625 116.445312 115.207031 91.128906 115.207031 59.894531 C 115.207031 28.660156 89.890625 3.339844 58.65625 3.339844"/><g clip-path="url(#a)"><path fill="#567B6B" d="M 86.257812 95.316406 C 78.738281 97.632812 71.539062 98.046875 66.472656 96.425781 L 64.058594 95.640625 C 53.875 92.332031 38.660156 87.40625 27.257812 92.058594 C 24.890625 89.753906 22.777344 87.1875 20.960938 84.410156 C 30.980469 74.058594 49.355469 80.035156 61.628906 84.023438 L 64.050781 84.808594 C 66.484375 85.59375 69.21875 85.945312 72.085938 85.945312 C 81.894531 85.945312 93.34375 81.8125 100.414062 76.476562 C 97.433594 83.949219 92.503906 90.4375 86.257812 95.316406 Z M 29.925781 94.464844 C 40.125 91.222656 53.792969 95.660156 63.070312 98.675781 L 65.503906 99.464844 C 67.855469 100.214844 70.578125 100.585938 73.542969 100.585938 C 75.105469 100.585938 76.746094 100.449219 78.417969 100.246094 C 72.441406 103.1875 65.722656 104.847656 58.625 104.847656 C 47.722656 104.847656 37.71875 100.945312 29.925781 94.464844 Z M 58.625 14.882812 C 83.425781 14.882812 103.609375 35.066406 103.609375 59.863281 C 103.609375 63.417969 103.179688 66.867188 102.398438 70.183594 C 96.355469 78.203125 76.628906 85.5 65.023438 81.773438 L 62.617188 80.996094 C 49.785156 76.824219 30.699219 70.625 19.269531 81.609375 C 15.691406 75.15625 13.644531 67.746094 13.644531 59.863281 C 13.644531 35.066406 33.828125 14.882812 58.625 14.882812 Z M 58.625 11.699219 C 32.066406 11.699219 10.460938 33.304688 10.460938 59.863281 C 10.460938 86.425781 32.066406 108.03125 58.625 108.03125 C 85.1875 108.03125 106.792969 86.425781 106.792969 59.863281 C 106.792969 33.304688 85.1875 11.699219 58.625 11.699219"/></g><path fill="#567B6B" d="M 35.917969 45.027344 L 42.285156 36.652344 C 44.636719 33.550781 48.21875 31.925781 51.839844 31.925781 C 53.796875 31.925781 55.761719 32.398438 57.554688 33.375 C 57.3125 33.503906 57.054688 33.644531 56.792969 33.800781 C 56.734375 33.839844 56.667969 33.878906 56.605469 33.917969 C 56.351562 34.066406 56.09375 34.230469 55.828125 34.40625 C 55.761719 34.453125 55.703125 34.496094 55.636719 34.539062 C 55.320312 34.753906 55 34.988281 54.675781 35.242188 C 54.613281 35.289062 54.554688 35.339844 54.488281 35.390625 C 54.210938 35.609375 53.929688 35.847656 53.65625 36.097656 C 53.578125 36.167969 53.503906 36.230469 53.429688 36.300781 C 53.097656 36.605469 52.773438 36.925781 52.441406 37.273438 C 52.390625 37.328125 52.335938 37.394531 52.28125 37.449219 C 52 37.753906 51.722656 38.078125 51.453125 38.410156 C 51.375 38.507812 51.296875 38.601562 51.222656 38.703125 C 50.90625 39.105469 50.597656 39.523438 50.292969 39.976562 C 50.253906 40.035156 50.222656 40.097656 50.183594 40.160156 C 49.917969 40.5625 49.671875 40.992188 49.421875 41.433594 C 49.355469 41.558594 49.285156 41.6875 49.21875 41.820312 C 48.949219 42.332031 48.683594 42.867188 48.445312 43.4375 C 48.421875 43.484375 48.40625 43.535156 48.382812 43.585938 C 48.167969 44.113281 47.964844 44.671875 47.777344 45.246094 C 47.722656 45.410156 47.671875 45.570312 47.621094 45.738281 C 47.425781 46.382812 47.242188 47.046875 47.085938 47.746094 C 46.949219 48.363281 46.796875 48.953125 46.625 49.519531 C 46.570312 49.699219 46.507812 49.871094 46.449219 50.046875 C 46.320312 50.421875 46.195312 50.792969 46.054688 51.144531 C 45.984375 51.339844 45.90625 51.519531 45.828125 51.703125 C 45.691406 52.027344 45.546875 52.34375 45.398438 52.648438 C 45.316406 52.816406 45.238281 52.984375 45.15625 53.144531 C 44.984375 53.464844 44.808594 53.773438 44.632812 54.070312 C 44.558594 54.1875 44.492188 54.3125 44.425781 54.421875 C 44.171875 54.828125 43.914062 55.214844 43.648438 55.570312 C 43.605469 55.625 43.566406 55.675781 43.523438 55.730469 C 43.296875 56.03125 43.070312 56.316406 42.839844 56.585938 C 42.746094 56.699219 42.652344 56.800781 42.558594 56.90625 C 42.375 57.109375 42.1875 57.308594 42.003906 57.496094 C 41.90625 57.597656 41.800781 57.695312 41.703125 57.796875 C 41.519531 57.972656 41.335938 58.136719 41.15625 58.296875 C 41.0625 58.386719 40.96875 58.46875 40.875 58.550781 C 40.667969 58.722656 40.472656 58.882812 40.273438 59.039062 C 40.207031 59.085938 40.140625 59.140625 40.078125 59.1875 C 39.820312 59.386719 39.566406 59.5625 39.324219 59.726562 C 39.261719 59.765625 39.203125 59.796875 39.140625 59.835938 C 38.957031 59.957031 38.78125 60.070312 38.609375 60.175781 C 38.535156 60.21875 38.457031 60.261719 38.378906 60.304688 C 38.234375 60.390625 38.097656 60.464844 37.964844 60.539062 C 37.894531 60.578125 37.820312 60.609375 37.753906 60.644531 C 37.625 60.710938 37.5 60.769531 37.386719 60.824219 C 37.335938 60.847656 37.28125 60.875 37.238281 60.898438 C 37.214844 60.90625 37.191406 60.914062 37.171875 60.925781 C 32.792969 56.746094 32.199219 49.9375 35.917969 45.027344 Z M 67.828125 39.667969 L 77.207031 44.417969 C 80.0625 45.863281 82.179688 48.335938 83.179688 51.382812 C 83.980469 53.84375 83.957031 56.433594 83.15625 58.851562 C 80.828125 55.886719 75.894531 51.433594 67.148438 51.132812 C 66.5 51.113281 65.867188 51.058594 65.242188 50.980469 C 66.390625 48.8125 66.988281 46.410156 66.988281 43.917969 C 66.988281 43.28125 66.9375 42.660156 66.859375 42.035156 C 66.847656 41.917969 66.832031 41.804688 66.816406 41.6875 C 66.726562 41.085938 66.605469 40.5 66.453125 39.921875 C 66.417969 39.8125 66.386719 39.699219 66.351562 39.59375 C 66.292969 39.386719 66.242188 39.175781 66.171875 38.972656 C 66.734375 39.160156 67.285156 39.390625 67.828125 39.667969 Z M 71.777344 67.082031 C 69.917969 67.082031 68.046875 66.636719 66.375 65.785156 L 57.617188 61.347656 L 63.289062 53.886719 C 64.5 54.113281 65.746094 54.273438 67.042969 54.320312 C 76.054688 54.621094 80.253906 60.007812 81.523438 62.039062 C 79.300781 65.164062 75.652344 67.082031 71.777344 67.082031 Z M 40.09375 62.992188 C 40.316406 62.863281 40.546875 62.71875 40.785156 62.570312 C 40.855469 62.523438 40.929688 62.46875 41 62.425781 C 41.222656 62.277344 41.449219 62.121094 41.683594 61.949219 C 41.769531 61.890625 41.851562 61.835938 41.933594 61.769531 C 42.226562 61.554688 42.523438 61.320312 42.828125 61.066406 C 42.894531 61.011719 42.964844 60.945312 43.03125 60.886719 C 43.285156 60.671875 43.539062 60.445312 43.792969 60.203125 C 43.882812 60.117188 43.96875 60.035156 44.050781 59.953125 C 44.367188 59.644531 44.675781 59.324219 44.984375 58.980469 C 45.039062 58.914062 45.101562 58.84375 45.15625 58.777344 C 45.421875 58.480469 45.675781 58.160156 45.929688 57.828125 C 46.015625 57.722656 46.101562 57.613281 46.183594 57.503906 C 46.480469 57.101562 46.777344 56.675781 47.058594 56.226562 C 47.105469 56.160156 47.136719 56.097656 47.179688 56.03125 C 47.429688 55.625 47.667969 55.207031 47.90625 54.765625 C 47.976562 54.628906 48.046875 54.496094 48.121094 54.351562 C 48.378906 53.839844 48.632812 53.304688 48.863281 52.734375 C 48.886719 52.691406 48.902344 52.636719 48.917969 52.589844 C 49.136719 52.0625 49.332031 51.503906 49.515625 50.929688 C 49.570312 50.765625 49.625 50.597656 49.675781 50.429688 C 49.863281 49.789062 50.046875 49.136719 50.195312 48.441406 C 50.199219 48.4375 50.199219 48.429688 50.199219 48.429688 C 50.339844 47.8125 50.492188 47.226562 50.664062 46.664062 C 50.722656 46.488281 50.785156 46.316406 50.839844 46.144531 C 50.96875 45.769531 51.097656 45.402344 51.238281 45.054688 C 51.316406 44.867188 51.390625 44.683594 51.46875 44.507812 C 51.613281 44.1875 51.757812 43.871094 51.90625 43.574219 C 51.988281 43.410156 52.078125 43.242188 52.160156 43.082031 C 52.332031 42.773438 52.5 42.476562 52.679688 42.195312 C 52.753906 42.066406 52.832031 41.941406 52.910156 41.820312 C 53.167969 41.425781 53.433594 41.046875 53.703125 40.695312 C 53.710938 40.6875 53.722656 40.675781 53.726562 40.667969 C 53.992188 40.324219 54.265625 40.007812 54.539062 39.707031 C 54.632812 39.605469 54.71875 39.511719 54.808594 39.417969 C 55.007812 39.214844 55.199219 39.011719 55.398438 38.828125 C 55.496094 38.730469 55.601562 38.636719 55.703125 38.542969 C 55.894531 38.371094 56.082031 38.210938 56.269531 38.054688 C 56.363281 37.972656 56.464844 37.890625 56.5625 37.8125 C 56.761719 37.652344 56.960938 37.503906 57.160156 37.367188 C 57.234375 37.3125 57.3125 37.25 57.386719 37.199219 C 57.65625 37.011719 57.921875 36.835938 58.175781 36.679688 C 58.179688 36.679688 58.183594 36.675781 58.191406 36.675781 C 58.4375 36.523438 58.683594 36.382812 58.914062 36.257812 C 58.980469 36.222656 59.046875 36.191406 59.113281 36.15625 C 59.273438 36.070312 59.433594 35.992188 59.582031 35.921875 C 59.648438 35.886719 59.714844 35.859375 59.78125 35.828125 C 59.917969 35.765625 60.050781 35.703125 60.171875 35.648438 C 60.226562 35.632812 60.277344 35.609375 60.328125 35.589844 C 60.359375 35.574219 60.386719 35.566406 60.421875 35.550781 C 61.039062 36.179688 61.578125 36.878906 62.042969 37.640625 C 63.191406 39.523438 63.804688 41.691406 63.804688 43.917969 C 63.804688 46.542969 62.957031 49.042969 61.34375 51.183594 L 55.007812 59.515625 C 54.652344 59.980469 54.328125 60.355469 54.003906 60.683594 C 50.320312 64.433594 44.648438 65.273438 40.09375 62.992188 Z M 33.621094 62.105469 L 35.8125 63.976562 C 35.820312 63.980469 35.824219 63.988281 35.828125 63.988281 C 35.828125 63.992188 35.835938 64 35.835938 64 L 36.503906 64.542969 L 36.542969 64.535156 C 39.210938 66.476562 42.339844 67.4375 45.464844 67.4375 C 49.019531 67.4375 52.550781 66.1875 55.355469 63.765625 C 55.421875 63.800781 55.488281 63.84375 55.554688 63.878906 L 64.933594 68.632812 C 67.054688 69.703125 69.421875 70.273438 71.777344 70.273438 C 77.0625 70.273438 82.042969 67.464844 84.757812 62.972656 C 84.960938 62.644531 85.144531 62.308594 85.316406 61.960938 C 87.148438 58.351562 87.460938 54.242188 86.207031 50.390625 C 84.945312 46.539062 82.261719 43.410156 78.648438 41.578125 L 69.265625 36.820312 C 67.683594 36.019531 66.003906 35.527344 64.285156 35.3125 C 64.117188 35.070312 63.945312 34.820312 63.765625 34.589844 L 64.078125 34.507812 L 61.871094 32.539062 C 61.867188 32.539062 61.867188 32.539062 61.859375 32.53125 L 61.21875 31.96875 L 61.191406 31.980469 C 61.125 31.925781 61.066406 31.871094 61 31.820312 C 54.339844 26.765625 44.804688 28.066406 39.746094 34.722656 L 33.378906 43.101562 C 29.007812 48.871094 29.351562 56.707031 33.855469 62.035156 L 33.621094 62.105469"/><g fill="#567B6B" fill-opacity=".4"><g><g><path d="M 3.5625 0 L 9.035156 0 L 9.035156 -23.800781 L 10.164062 -23.800781 L 29.792969 0 L 36.914062 0 L 14.332031 -27.359375 L 35.960938 -45.429688 L 34.570312 -45.429688 L 9.902344 -24.667969 L 9.035156 -24.667969 L 9.035156 -45.429688 L 3.5625 -45.429688 Z M 3.5625 0" transform="translate(142.471 88.29)"/></g></g></g><g fill="#567B6B" fill-opacity=".4"><g><g><path d="M 23.800781 0.695312 C 37.003906 0.695312 45.429688 -9.035156 45.429688 -22.757812 C 45.429688 -36.394531 35.179688 -46.121094 23.800781 -46.121094 C 12.421875 -46.121094 2.171875 -36.394531 2.171875 -22.757812 C 2.171875 -9.035156 10.597656 0.695312 23.800781 0.695312 Z M 23.800781 -0.171875 C 16.15625 -0.171875 8.597656 -6.253906 8.597656 -23.277344 C 8.597656 -39.78125 16.328125 -45.253906 23.800781 -45.253906 C 31.269531 -45.253906 39 -39.78125 39 -23.277344 C 39 -6.253906 31.445312 -0.171875 23.800781 -0.171875 Z M 23.800781 -0.171875" transform="translate(180.255 88.29)"/></g></g></g><g fill="#567B6B" fill-opacity=".4"><g><g><path d="M 3.5625 0 L 9.035156 0 L 9.035156 -23.886719 L 15.980469 -23.886719 C 22.929688 -23.886719 29.359375 -27.796875 29.359375 -34.746094 C 29.359375 -41.085938 24.058594 -45.429688 15.980469 -45.429688 L 3.5625 -45.429688 Z M 9.035156 -24.84375 L 9.035156 -44.558594 L 14.851562 -44.558594 C 19.109375 -44.558594 23.019531 -42.300781 23.019531 -34.746094 C 23.019531 -27.796875 18.675781 -24.84375 14.851562 -24.84375 Z M 9.035156 -24.84375" transform="translate(227.853 88.29)"/></g></g></g><g fill="#567B6B" fill-opacity=".4"><g><g><path d="M 3.5625 0 L 9.035156 0 L 9.035156 -45.429688 L 3.5625 -45.429688 Z M 3.5625 0" transform="translate(258.514 88.29)"/></g></g></g><g fill="#394B38"><g><g><path d="M 3.5625 0 L 9.035156 0 L 9.035156 -23.800781 L 10.164062 -23.800781 L 29.792969 0 L 36.914062 0 L 14.332031 -27.359375 L 35.960938 -45.429688 L 34.570312 -45.429688 L 9.902344 -24.667969 L 9.035156 -24.667969 L 9.035156 -45.429688 L 3.5625 -45.429688 Z M 3.5625 0" transform="translate(140.552 86.371)"/></g></g></g><g fill="#394B38"><g><g><path d="M 23.800781 0.695312 C 37.003906 0.695312 45.429688 -9.035156 45.429688 -22.757812 C 45.429688 -36.394531 35.179688 -46.121094 23.800781 -46.121094 C 12.421875 -46.121094 2.171875 -36.394531 2.171875 -22.757812 C 2.171875 -9.035156 10.597656 0.695312 23.800781 0.695312 Z M 23.800781 -0.171875 C 16.15625 -0.171875 8.597656 -6.253906 8.597656 -23.277344 C 8.597656 -39.78125 16.328125 -45.253906 23.800781 -45.253906 C 31.269531 -45.253906 39 -39.78125 39 -23.277344 C 39 -6.253906 31.445312 -0.171875 23.800781 -0.171875 Z M 23.800781 -0.171875" transform="translate(178.335 86.371)"/></g></g></g><g fill="#394B38"><g><g><path d="M 3.5625 0 L 9.035156 0 L 9.035156 -23.886719 L 15.980469 -23.886719 C 22.929688 -23.886719 29.359375 -27.796875 29.359375 -34.746094 C 29.359375 -41.085938 24.058594 -45.429688 15.980469 -45.429688 L 3.5625 -45.429688 Z M 9.035156 -24.84375 L 9.035156 -44.558594 L 14.851562 -44.558594 C 19.109375 -44.558594 23.019531 -42.300781 23.019531 -34.746094 C 23.019531 -27.796875 18.675781 -24.84375 14.851562 -24.84375 Z M 9.035156 -24.84375" transform="translate(225.933 86.371)"/></g></g></g><g fill="#394B38"><g><g><path d="M 3.5625 0 L 9.035156 0 L 9.035156 -45.429688 L 3.5625 -45.429688 Z M 3.5625 0" transform="translate(256.594 86.371)"/></g></g></g></svg>