<svg xmlns="http://www.w3.org/2000/svg" xmlns:xlink="http://www.w3.org/1999/xlink" width="375" zoomAndPan="magnify" viewBox="0 0 375 74.999997" height="74.999997" preserveAspectRatio="xMidYMid meet" version="1.0"><path fill="rgb(8.628845%, 8.628845%, 8.628845%)" d="M 329.761719 37.832031 C 327.832031 36.558594 325.710938 35.65625 323.699219 34.523438 C 322.398438 33.789062 321.007812 33.136719 319.875 32.207031 C 317.949219 30.621094 318.347656 27.511719 320.359375 26.15625 C 323.246094 24.234375 328.03125 25.308594 328.542969 29.238281 C 328.542969 29.320312 328.628906 29.378906 328.710938 29.378906 L 333.074219 29.378906 C 333.1875 29.378906 333.273438 29.292969 333.246094 29.179688 C 333.019531 26.464844 331.96875 24.203125 330.042969 22.761719 C 328.203125 21.378906 326.105469 20.644531 323.867188 20.644531 C 312.34375 20.644531 311.292969 32.828125 317.496094 36.671875 C 318.203125 37.125 324.292969 40.179688 326.445312 41.507812 C 328.597656 42.835938 329.277344 45.265625 328.34375 47.1875 C 327.492188 48.941406 325.285156 50.15625 323.078125 50.015625 C 320.667969 49.875 318.800781 48.574219 318.148438 46.539062 C 318.035156 46.171875 317.976562 45.464844 317.976562 45.152344 C 317.976562 45.070312 317.894531 44.984375 317.808594 44.984375 L 313.078125 44.984375 C 312.996094 44.984375 312.910156 45.070312 312.910156 45.152344 C 312.910156 48.574219 313.757812 50.46875 316.082031 52.195312 C 318.261719 53.832031 320.640625 54.511719 323.105469 54.511719 C 329.5625 54.511719 332.90625 50.863281 333.582031 47.078125 C 334.175781 43.371094 333.074219 40.035156 329.761719 37.832031 Z M 329.761719 37.832031 " fill-opacity="1" fill-rule="nonzero"/><path fill="rgb(8.628845%, 8.628845%, 8.628845%)" d="M 124.402344 21.265625 L 120.011719 21.265625 C 119.929688 21.265625 119.871094 21.320312 119.84375 21.378906 L 115.964844 34.15625 C 115.90625 34.328125 115.679688 34.328125 115.625 34.15625 L 111.742188 21.378906 C 111.714844 21.292969 111.660156 21.265625 111.574219 21.265625 L 104.351562 21.265625 C 104.265625 21.265625 104.179688 21.351562 104.179688 21.433594 L 104.179688 54.058594 C 104.179688 54.144531 104.265625 54.230469 104.351562 54.230469 L 109.082031 54.230469 C 109.167969 54.230469 109.25 54.144531 109.25 54.058594 L 109.25 29.265625 C 109.25 29.066406 109.535156 29.039062 109.589844 29.210938 L 113.5 42.074219 L 113.78125 42.976562 C 113.8125 43.0625 113.867188 43.089844 113.953125 43.089844 L 117.578125 43.089844 C 117.664062 43.089844 117.71875 43.035156 117.746094 42.976562 L 118.03125 42.074219 L 121.9375 29.210938 C 121.996094 29.011719 122.277344 29.066406 122.277344 29.265625 L 122.277344 54.058594 C 122.277344 54.144531 122.363281 54.230469 122.449219 54.230469 L 127.179688 54.230469 C 127.261719 54.230469 127.347656 54.144531 127.347656 54.058594 L 127.347656 21.433594 C 127.347656 21.351562 127.261719 21.265625 127.179688 21.265625 Z M 124.402344 21.265625 " fill-opacity="1" fill-rule="nonzero"/><path fill="rgb(8.628845%, 8.628845%, 8.628845%)" d="M 257.34375 21.265625 C 257.257812 21.265625 257.199219 21.320312 257.171875 21.378906 L 253.292969 34.15625 C 253.238281 34.328125 253.011719 34.328125 252.953125 34.15625 L 249.074219 21.378906 C 249.042969 21.292969 248.988281 21.265625 248.902344 21.265625 L 241.707031 21.265625 C 241.625 21.265625 241.539062 21.351562 241.539062 21.433594 L 241.539062 54.058594 C 241.539062 54.144531 241.625 54.230469 241.707031 54.230469 L 246.441406 54.230469 C 246.523438 54.230469 246.609375 54.144531 246.609375 54.058594 L 246.609375 29.265625 C 246.609375 29.066406 246.894531 29.039062 246.949219 29.210938 L 250.855469 42.074219 L 251.140625 42.976562 C 251.167969 43.0625 251.226562 43.089844 251.308594 43.089844 L 254.933594 43.089844 C 255.019531 43.089844 255.078125 43.035156 255.105469 42.976562 L 255.390625 42.074219 L 259.296875 29.210938 C 259.355469 29.011719 259.636719 29.066406 259.636719 29.265625 L 259.636719 54.058594 C 259.636719 54.144531 259.722656 54.230469 259.808594 54.230469 L 264.535156 54.230469 C 264.621094 54.230469 264.707031 54.144531 264.707031 54.058594 L 264.707031 21.433594 C 264.707031 21.351562 264.621094 21.265625 264.535156 21.265625 Z M 257.34375 21.265625 " fill-opacity="1" fill-rule="nonzero"/><path fill="rgb(8.628845%, 8.628845%, 8.628845%)" d="M 196.339844 21.265625 L 173.992188 21.265625 C 173.90625 21.265625 173.824219 21.351562 173.824219 21.433594 L 173.824219 25.503906 C 173.824219 25.589844 173.90625 25.675781 173.992188 25.675781 L 182.632812 25.675781 L 182.632812 54.058594 C 182.632812 54.144531 182.714844 54.230469 182.800781 54.230469 L 187.53125 54.230469 C 187.617188 54.230469 187.699219 54.144531 187.699219 54.058594 L 187.699219 25.675781 L 196.339844 25.675781 C 196.421875 25.675781 196.507812 25.589844 196.507812 25.503906 L 196.507812 21.433594 C 196.507812 21.351562 196.453125 21.265625 196.339844 21.265625 Z M 196.339844 21.265625 " fill-opacity="1" fill-rule="nonzero"/><path fill="rgb(8.628845%, 8.628845%, 8.628845%)" d="M 224.234375 54.230469 L 228.539062 54.230469 C 228.652344 54.230469 228.738281 54.117188 228.710938 54.003906 L 219.816406 21.265625 C 219.789062 21.179688 219.730469 21.152344 219.648438 21.152344 L 213.472656 21.152344 C 213.386719 21.152344 213.332031 21.207031 213.304688 21.265625 L 204.410156 54.003906 C 204.382812 54.117188 204.46875 54.230469 204.582031 54.230469 L 208.886719 54.230469 C 208.96875 54.230469 209.027344 54.171875 209.054688 54.117188 L 211.632812 44.589844 C 211.660156 44.503906 211.71875 44.476562 211.800781 44.476562 L 221.320312 44.476562 C 221.402344 44.476562 221.460938 44.53125 221.488281 44.589844 L 224.066406 54.117188 C 224.09375 54.171875 224.179688 54.230469 224.234375 54.230469 Z M 212.933594 39.808594 L 216.390625 27.058594 C 216.445312 26.890625 216.671875 26.890625 216.730469 27.058594 L 220.183594 39.808594 C 220.214844 39.921875 220.128906 40.035156 220.015625 40.035156 L 213.105469 40.035156 C 212.992188 40.035156 212.90625 39.921875 212.933594 39.808594 Z M 212.933594 39.808594 " fill-opacity="1" fill-rule="nonzero"/><path fill="rgb(8.628845%, 8.628845%, 8.628845%)" d="M 297.644531 54.230469 L 301.949219 54.230469 C 302.0625 54.230469 302.144531 54.117188 302.117188 54.003906 L 293.226562 21.265625 C 293.195312 21.179688 293.140625 21.152344 293.054688 21.152344 L 286.882812 21.152344 C 286.796875 21.152344 286.738281 21.207031 286.710938 21.265625 L 277.820312 54.003906 C 277.789062 54.117188 277.875 54.230469 277.988281 54.230469 L 282.292969 54.230469 C 282.378906 54.230469 282.4375 54.171875 282.464844 54.117188 L 285.042969 44.589844 C 285.070312 44.503906 285.125 44.476562 285.210938 44.476562 L 294.726562 44.476562 C 294.8125 44.476562 294.871094 44.53125 294.898438 44.589844 L 297.472656 54.117188 C 297.503906 54.171875 297.558594 54.230469 297.644531 54.230469 Z M 286.34375 39.808594 L 289.796875 27.058594 C 289.855469 26.890625 290.082031 26.890625 290.136719 27.058594 L 293.59375 39.808594 C 293.621094 39.921875 293.539062 40.035156 293.425781 40.035156 L 286.511719 40.035156 C 286.398438 40.035156 286.316406 39.921875 286.34375 39.808594 Z M 286.34375 39.808594 " fill-opacity="1" fill-rule="nonzero"/><path fill="rgb(8.628845%, 8.628845%, 8.628845%)" d="M 146.550781 49.394531 L 146.550781 39.273438 C 146.550781 39.1875 146.636719 39.105469 146.71875 39.105469 L 159.324219 39.105469 C 159.40625 39.105469 159.492188 39.019531 159.492188 38.933594 L 159.492188 34.863281 C 159.492188 34.777344 159.40625 34.695312 159.324219 34.695312 L 146.71875 34.695312 C 146.636719 34.695312 146.550781 34.609375 146.550781 34.523438 L 146.550781 25.875 C 146.550781 25.789062 146.636719 25.703125 146.71875 25.703125 L 161.050781 25.703125 C 161.136719 25.703125 161.21875 25.617188 161.21875 25.535156 L 161.21875 21.460938 C 161.21875 21.378906 161.136719 21.292969 161.050781 21.292969 L 141.652344 21.292969 C 141.566406 21.292969 141.480469 21.378906 141.480469 21.460938 L 141.480469 54.058594 C 141.480469 54.144531 141.566406 54.230469 141.652344 54.230469 L 161.644531 54.230469 C 161.730469 54.230469 161.816406 54.144531 161.816406 54.058594 L 161.816406 49.761719 C 161.816406 49.675781 161.730469 49.59375 161.644531 49.59375 L 146.691406 49.59375 C 146.605469 49.566406 146.550781 49.507812 146.550781 49.394531 Z M 146.550781 49.394531 " fill-opacity="1" fill-rule="nonzero"/><path fill="rgb(8.628845%, 8.628845%, 8.628845%)" d="M 372.976562 53.945312 L 356.609375 37.070312 C 356.550781 37.011719 356.550781 36.898438 356.609375 36.84375 L 371.335938 21.574219 C 371.449219 21.460938 371.363281 21.292969 371.222656 21.292969 L 365.191406 21.292969 C 365.132812 21.292969 365.105469 21.320312 365.078125 21.347656 L 352.589844 34.296875 C 352.476562 34.410156 352.304688 34.324219 352.304688 34.183594 L 352.304688 21.460938 C 352.304688 21.378906 352.21875 21.292969 352.132812 21.292969 L 347.402344 21.292969 C 347.320312 21.292969 347.234375 21.378906 347.234375 21.460938 L 347.234375 54.089844 C 347.234375 54.171875 347.320312 54.257812 347.402344 54.257812 L 352.132812 54.257812 C 352.21875 54.257812 352.304688 54.171875 352.304688 54.089844 L 352.304688 39.726562 C 352.304688 39.585938 352.503906 39.5 352.589844 39.613281 L 366.746094 54.199219 C 366.777344 54.230469 366.832031 54.257812 366.859375 54.257812 L 372.894531 54.257812 C 373.007812 54.230469 373.089844 54.03125 372.976562 53.945312 Z M 372.976562 53.945312 " fill-opacity="1" fill-rule="nonzero"/><path stroke-linecap="round" transform="matrix(2.180043, 0, 0, 2.181818, 0.0163427, 1.526162)" fill-opacity="1" fill="rgb(88.238525%, 46.669006%, 14.898682%)" fill-rule="nonzero" stroke-linejoin="round" d="M 32.95846 0.999565 L 19.824398 10.717665 L 22.266653 4.990288 Z M 32.95846 0.999565 " stroke="rgb(88.238525%, 46.669006%, 14.898682%)" stroke-width="0.25" stroke-opacity="1" stroke-miterlimit="4"/><path stroke-linecap="round" transform="matrix(2.180043, 0, 0, 2.181818, 0.0163427, 1.526162)" fill-opacity="1" fill="rgb(88.62915%, 46.269226%, 14.509583%)" fill-rule="nonzero" stroke-linejoin="round" d="M 2.662319 0.999565 L 15.679912 10.808974 L 13.354126 4.990288 Z M 2.662319 0.999565 " stroke="rgb(88.62915%, 46.269226%, 14.509583%)" stroke-width="0.25" stroke-opacity="1" stroke-miterlimit="4"/><path stroke-linecap="round" transform="matrix(2.180043, 0, 0, 2.181818, 0.0163427, 1.526162)" fill-opacity="1" fill="rgb(88.62915%, 46.269226%, 14.509583%)" fill-rule="nonzero" stroke-linejoin="round" d="M 28.229839 23.533096 L 24.733993 28.871964 L 32.216645 30.932674 L 34.361457 23.64947 Z M 28.229839 23.533096 " stroke="rgb(88.62915%, 46.269226%, 14.509583%)" stroke-width="0.25" stroke-opacity="1" stroke-miterlimit="4"/><path stroke-linecap="round" transform="matrix(2.180043, 0, 0, 2.181818, 0.0163427, 1.526162)" fill-opacity="1" fill="rgb(88.62915%, 46.269226%, 14.509583%)" fill-rule="nonzero" stroke-linejoin="round" d="M 1.271865 23.64947 L 3.404134 30.932674 L 10.872452 28.871964 L 7.39094 23.533096 Z M 1.271865 23.64947 " stroke="rgb(88.62915%, 46.269226%, 14.509583%)" stroke-width="0.25" stroke-opacity="1" stroke-miterlimit="4"/><path stroke-linecap="round" transform="matrix(2.180043, 0, 0, 2.181818, 0.0163427, 1.526162)" fill-opacity="1" fill="rgb(88.62915%, 46.269226%, 14.509583%)" fill-rule="nonzero" stroke-linejoin="round" d="M 10.471083 14.515029 L 8.392569 17.649957 L 15.796381 17.988336 L 15.549109 10.019423 Z M 10.471083 14.515029 " stroke="rgb(88.62915%, 46.269226%, 14.509583%)" stroke-width="0.25" stroke-opacity="1" stroke-miterlimit="4"/><path stroke-linecap="round" transform="matrix(2.180043, 0, 0, 2.181818, 0.0163427, 1.526162)" fill-opacity="1" fill="rgb(88.62915%, 46.269226%, 14.509583%)" fill-rule="nonzero" stroke-linejoin="round" d="M 25.149696 14.515029 L 19.99283 9.928114 L 19.824398 17.988336 L 27.22821 17.649957 Z M 25.149696 14.515029 " stroke="rgb(88.62915%, 46.269226%, 14.509583%)" stroke-width="0.25" stroke-opacity="1" stroke-miterlimit="4"/><path stroke-linecap="round" transform="matrix(2.180043, 0, 0, 2.181818, 0.0163427, 1.526162)" fill-opacity="1" fill="rgb(88.62915%, 46.269226%, 14.509583%)" fill-rule="nonzero" stroke-linejoin="round" d="M 10.872452 28.871964 L 15.355592 26.707413 L 11.496006 23.70139 Z M 10.872452 28.871964 " stroke="rgb(88.62915%, 46.269226%, 14.509583%)" stroke-width="0.25" stroke-opacity="1" stroke-miterlimit="4"/><path stroke-linecap="round" transform="matrix(2.180043, 0, 0, 2.181818, 0.0163427, 1.526162)" fill-opacity="1" fill="rgb(88.62915%, 46.269226%, 14.509583%)" fill-rule="nonzero" stroke-linejoin="round" d="M 20.265187 26.707413 L 24.733993 28.871964 L 24.124773 23.70139 Z M 20.265187 26.707413 " stroke="rgb(88.62915%, 46.269226%, 14.509583%)" stroke-width="0.25" stroke-opacity="1" stroke-miterlimit="4"/><path stroke-linecap="round" transform="matrix(2.180043, 0, 0, 2.181818, 0.0163427, 1.526162)" fill-opacity="1" fill="rgb(83.529663%, 74.899292%, 69.799805%)" fill-rule="nonzero" stroke-linejoin="round" d="M 24.733993 28.871964 L 20.265187 26.707413 L 20.628927 29.611384 L 20.591299 30.841365 Z M 24.733993 28.871964 " stroke="rgb(83.529663%, 74.899292%, 69.799805%)" stroke-width="0.25" stroke-opacity="1" stroke-miterlimit="4"/><path stroke-linecap="round" transform="matrix(2.180043, 0, 0, 2.181818, 0.0163427, 1.526162)" fill-opacity="1" fill="rgb(83.529663%, 74.899292%, 69.799805%)" fill-rule="nonzero" stroke-linejoin="round" d="M 10.872452 28.871964 L 15.031272 30.841365 L 15.004395 29.611384 L 15.355592 26.707413 Z M 10.872452 28.871964 " stroke="rgb(83.529663%, 74.899292%, 69.799805%)" stroke-width="0.25" stroke-opacity="1" stroke-miterlimit="4"/><path stroke-linecap="round" transform="matrix(2.180043, 0, 0, 2.181818, 0.0163427, 1.526162)" fill-opacity="1" fill="rgb(13.729858%, 20.388794%, 27.839661%)" fill-rule="nonzero" stroke-linejoin="round" d="M 15.108321 21.78391 L 11.39208 20.695368 L 14.017101 19.490452 Z M 15.108321 21.78391 " stroke="rgb(13.729858%, 20.388794%, 27.839661%)" stroke-width="0.25" stroke-opacity="1" stroke-miterlimit="4"/><path stroke-linecap="round" transform="matrix(2.180043, 0, 0, 2.181818, 0.0163427, 1.526162)" fill-opacity="1" fill="rgb(13.729858%, 20.388794%, 27.839661%)" fill-rule="nonzero" stroke-linejoin="round" d="M 20.512458 21.78391 L 21.603678 19.490452 L 24.241242 20.695368 Z M 20.512458 21.78391 " stroke="rgb(13.729858%, 20.388794%, 27.839661%)" stroke-width="0.25" stroke-opacity="1" stroke-miterlimit="4"/><path stroke-linecap="round" transform="matrix(2.180043, 0, 0, 2.181818, 0.0163427, 1.526162)" fill-opacity="1" fill="rgb(79.998779%, 38.42926%, 15.689087%)" fill-rule="nonzero" stroke-linejoin="round" d="M 10.872452 28.871964 L 11.522883 23.533096 L 7.39094 23.64947 Z M 10.872452 28.871964 " stroke="rgb(79.998779%, 38.42926%, 15.689087%)" stroke-width="0.25" stroke-opacity="1" stroke-miterlimit="4"/><path stroke-linecap="round" transform="matrix(2.180043, 0, 0, 2.181818, 0.0163427, 1.526162)" fill-opacity="1" fill="rgb(79.998779%, 38.42926%, 15.689087%)" fill-rule="nonzero" stroke-linejoin="round" d="M 24.097896 23.533096 L 24.733993 28.871964 L 28.229839 23.64947 Z M 24.097896 23.533096 " stroke="rgb(79.998779%, 38.42926%, 15.689087%)" stroke-width="0.25" stroke-opacity="1" stroke-miterlimit="4"/><path stroke-linecap="round" transform="matrix(2.180043, 0, 0, 2.181818, 0.0163427, 1.526162)" fill-opacity="1" fill="rgb(79.998779%, 38.42926%, 15.689087%)" fill-rule="nonzero" stroke-linejoin="round" d="M 27.22821 17.649957 L 19.824398 17.988336 L 20.512458 21.78391 L 21.603678 19.490452 L 24.241242 20.695368 Z M 27.22821 17.649957 " stroke="rgb(79.998779%, 38.42926%, 15.689087%)" stroke-width="0.25" stroke-opacity="1" stroke-miterlimit="4"/><path stroke-linecap="round" transform="matrix(2.180043, 0, 0, 2.181818, 0.0163427, 1.526162)" fill-opacity="1" fill="rgb(79.998779%, 38.42926%, 15.689087%)" fill-rule="nonzero" stroke-linejoin="round" d="M 11.39208 20.695368 L 14.017101 19.490452 L 15.108321 21.78391 L 15.796381 17.988336 L 8.392569 17.649957 Z M 11.39208 20.695368 " stroke="rgb(79.998779%, 38.42926%, 15.689087%)" stroke-width="0.25" stroke-opacity="1" stroke-miterlimit="4"/><path stroke-linecap="round" transform="matrix(2.180043, 0, 0, 2.181818, 0.0163427, 1.526162)" fill-opacity="1" fill="rgb(88.62915%, 45.878601%, 14.509583%)" fill-rule="nonzero" stroke-linejoin="round" d="M 8.392569 17.649957 L 11.497798 23.70139 L 11.393872 20.695368 Z M 8.392569 17.649957 " stroke="rgb(88.62915%, 45.878601%, 14.509583%)" stroke-width="0.25" stroke-opacity="1" stroke-miterlimit="4"/><path stroke-linecap="round" transform="matrix(2.180043, 0, 0, 2.181818, 0.0163427, 1.526162)" fill-opacity="1" fill="rgb(88.62915%, 45.878601%, 14.509583%)" fill-rule="nonzero" stroke-linejoin="round" d="M 24.241242 20.695368 L 24.124773 23.70139 L 27.230002 17.649957 Z M 24.241242 20.695368 " stroke="rgb(88.62915%, 45.878601%, 14.509583%)" stroke-width="0.25" stroke-opacity="1" stroke-miterlimit="4"/><path stroke-linecap="round" transform="matrix(2.180043, 0, 0, 2.181818, 0.0163427, 1.526162)" fill-opacity="1" fill="rgb(88.62915%, 45.878601%, 14.509583%)" fill-rule="nonzero" stroke-linejoin="round" d="M 15.796381 17.988336 L 15.108321 21.78391 L 15.979147 26.266983 L 16.174455 20.358779 Z M 15.796381 17.988336 " stroke="rgb(88.62915%, 45.878601%, 14.509583%)" stroke-width="0.25" stroke-opacity="1" stroke-miterlimit="4"/><path stroke-linecap="round" transform="matrix(2.180043, 0, 0, 2.181818, 0.0163427, 1.526162)" fill-opacity="1" fill="rgb(88.62915%, 45.878601%, 14.509583%)" fill-rule="nonzero" stroke-linejoin="round" d="M 19.824398 17.988336 L 19.460658 20.346247 L 19.641633 26.266983 L 20.512458 21.78391 Z M 19.824398 17.988336 " stroke="rgb(88.62915%, 45.878601%, 14.509583%)" stroke-width="0.25" stroke-opacity="1" stroke-miterlimit="4"/><path stroke-linecap="round" transform="matrix(2.180043, 0, 0, 2.181818, 0.0163427, 1.526162)" fill-opacity="1" fill="rgb(96.078491%, 51.759338%, 12.159729%)" fill-rule="nonzero" stroke-linejoin="round" d="M 20.512458 21.78391 L 19.641633 26.266983 L 20.265187 26.707413 L 24.124773 23.70139 L 24.241242 20.695368 Z M 20.512458 21.78391 " stroke="rgb(96.078491%, 51.759338%, 12.159729%)" stroke-width="0.25" stroke-opacity="1" stroke-miterlimit="4"/><path stroke-linecap="round" transform="matrix(2.180043, 0, 0, 2.181818, 0.0163427, 1.526162)" fill-opacity="1" fill="rgb(96.078491%, 51.759338%, 12.159729%)" fill-rule="nonzero" stroke-linejoin="round" d="M 11.39208 20.695368 L 11.496006 23.70139 L 15.355592 26.707413 L 15.979147 26.266983 L 15.108321 21.78391 Z M 11.39208 20.695368 " stroke="rgb(96.078491%, 51.759338%, 12.159729%)" stroke-width="0.25" stroke-opacity="1" stroke-miterlimit="4"/><path stroke-linecap="round" transform="matrix(2.180043, 0, 0, 2.181818, 0.0163427, 1.526162)" fill-opacity="1" fill="rgb(75.289917%, 67.449951%, 61.569214%)" fill-rule="nonzero" stroke-linejoin="round" d="M 20.591299 30.841365 L 20.628927 29.611384 L 20.292064 29.324926 L 15.328715 29.324926 L 15.004395 29.611384 L 15.031272 30.841365 L 10.872452 28.871964 L 12.327412 30.064347 L 15.276752 32.098201 L 20.331484 32.098201 L 23.293367 30.064347 L 24.733993 28.871964 Z M 20.591299 30.841365 " stroke="rgb(75.289917%, 67.449951%, 61.569214%)" stroke-width="0.25" stroke-opacity="1" stroke-miterlimit="4"/><path stroke-linecap="round" transform="matrix(2.180043, 0, 0, 2.181818, 0.0163427, 1.526162)" fill-opacity="1" fill="rgb(8.628845%, 8.628845%, 8.628845%)" fill-rule="nonzero" stroke-linejoin="round" d="M 20.265187 26.707413 L 19.641633 26.266983 L 15.979147 26.266983 L 15.355592 26.707413 L 15.004395 29.611384 L 15.328715 29.324926 L 20.292064 29.324926 L 20.628927 29.611384 Z M 20.265187 26.707413 " stroke="rgb(8.628845%, 8.628845%, 8.628845%)" stroke-width="0.25" stroke-opacity="1" stroke-miterlimit="4"/><path stroke-linecap="round" transform="matrix(2.180043, 0, 0, 2.181818, 0.0163427, 1.526162)" fill-opacity="1" fill="rgb(46.269226%, 24.308777%, 10.198975%)" fill-rule="nonzero" stroke-linejoin="round" d="M 33.517508 11.353245 L 34.621271 5.989312 L 32.95846 0.999565 L 20.265187 10.393609 L 25.149696 14.515029 L 32.048214 16.523818 L 33.569471 14.747776 L 32.906497 14.267958 L 33.958297 13.310113 L 33.153768 12.687066 L 34.205568 11.884983 Z M 33.517508 11.353245 " stroke="rgb(46.269226%, 24.308777%, 10.198975%)" stroke-width="0.25" stroke-opacity="1" stroke-miterlimit="4"/><path stroke-linecap="round" transform="matrix(2.180043, 0, 0, 2.181818, 0.0163427, 1.526162)" fill-opacity="1" fill="rgb(46.269226%, 24.308777%, 10.198975%)" fill-rule="nonzero" stroke-linejoin="round" d="M 0.999508 5.989312 L 2.117605 11.353245 L 1.402668 11.884983 L 2.468803 12.687066 L 1.662482 13.310113 L 2.714282 14.267958 L 2.0531 14.747776 L 3.572565 16.523818 L 10.471083 14.515029 L 15.355592 10.393609 L 2.662319 0.999565 Z M 0.999508 5.989312 " stroke="rgb(46.269226%, 24.308777%, 10.198975%)" stroke-width="0.25" stroke-opacity="1" stroke-miterlimit="4"/><path stroke-linecap="round" transform="matrix(2.180043, 0, 0, 2.181818, 0.0163427, 1.526162)" fill-opacity="1" fill="rgb(96.078491%, 51.759338%, 12.159729%)" fill-rule="nonzero" stroke-linejoin="round" d="M 32.048214 16.523818 L 25.151488 14.515029 L 27.230002 17.649957 L 24.124773 23.70139 L 28.229839 23.64947 L 34.361457 23.64947 Z M 32.048214 16.523818 " stroke="rgb(96.078491%, 51.759338%, 12.159729%)" stroke-width="0.25" stroke-opacity="1" stroke-miterlimit="4"/><path stroke-linecap="round" transform="matrix(2.180043, 0, 0, 2.181818, 0.0163427, 1.526162)" fill-opacity="1" fill="rgb(96.078491%, 51.759338%, 12.159729%)" fill-rule="nonzero" stroke-linejoin="round" d="M 10.471083 14.515029 L 3.572565 16.523818 L 1.271865 23.64947 L 7.39094 23.64947 L 11.496006 23.70139 L 8.392569 17.649957 Z M 10.471083 14.515029 " stroke="rgb(96.078491%, 51.759338%, 12.159729%)" stroke-width="0.25" stroke-opacity="1" stroke-miterlimit="4"/><path stroke-linecap="round" transform="matrix(2.180043, 0, 0, 2.181818, 0.0163427, 1.526162)" fill-opacity="1" fill="rgb(96.078491%, 51.759338%, 12.159729%)" fill-rule="nonzero" stroke-linejoin="round" d="M 19.824398 17.988336 L 20.265187 10.393609 L 22.266653 4.990288 L 13.354126 4.990288 L 15.355592 10.393609 L 15.796381 17.988336 L 15.964812 20.371312 L 15.979147 26.266983 L 19.641633 26.266983 L 19.655967 20.371312 Z M 19.824398 17.988336 " stroke="rgb(96.078491%, 51.759338%, 12.159729%)" stroke-width="0.25" stroke-opacity="1" stroke-miterlimit="4"/></svg>